<svg id="_x33_0" enable-background="new 0 0 64 64" height="512" viewBox="0 0 64 64" width="512" xmlns="http://www.w3.org/2000/svg" xmlns:xlink="http://www.w3.org/1999/xlink"><linearGradient id="SVGID_1_" gradientUnits="userSpaceOnUse" x1="32" x2="32" y1="63" y2="1"><stop offset="0" stop-color="#9f2fff"/><stop offset="1" stop-color="#0bb1d3"/></linearGradient><path d="m57.202 3.733c-.176-1.558-1.491-2.733-3.059-2.733-.141 0-.281.009-.419.029l-20.904 2.85c-.488-1.658-2.006-2.879-3.82-2.879h-2c-2.206 0-4 1.794-4 4v2h-4c-1.103 0-2 .897-2 2v24h-.881c-1.584 0-3.118.465-4.438 1.344l-2.835 1.89c-.301-.724-1.015-1.234-1.846-1.234h-4c-1.103 0-2 .897-2 2v16c0 1.103.897 2 2 2h4c1.103 0 2-.897 2-2v-.382l.975.487c2.181 1.09 4.591 1.727 7.025 1.865v6.03c0 1.103.897 2 2 2h32c1.103 0 2-.897 2-2v-3.347l7.34-1.335c1.542-.28 2.66-1.621 2.66-3.187 0-.128-.008-.257-.022-.379zm-32.202 1.267c0-1.103.897-2 2-2h2c1.103 0 2 .897 2 2v2h-2v-2h-2v2h-2zm0 4h2v3c0 .551-.448 1-1 1s-1-.449-1-1zm-22 44v-16h4l.001 16zm7.869-1.684-1.869-.934v-11.847l3.791-2.527c.989-.659 2.141-1.008 3.328-1.008h3.616c1.048 0 2.033.558 2.572 1.457l4.611 7.687c.054.087.082.188.082.348 0 .28-.228.508-.557.508-1.256 0-2.434-.549-3.231-1.507l-4.144-4.973-.947.944c-1.635 1.636-3.809 2.536-6.121 2.536v2c1.774 0 3.478-.44 5-1.252v10.193c-2.125-.135-4.227-.672-6.131-1.625zm40.131 9.684h-32v-19.438l2.675 3.211c1.179 1.415 2.917 2.227 4.818 2.227 1.382 0 2.507-1.125 2.507-2.566 0-.465-.127-.922-.366-1.32l-4.611-7.686c-.899-1.498-2.542-2.428-4.288-2.428h-.735v-24h4v3c0 1.654 1.346 3 3 3s3-1.346 3-3v-3h2v4h2v-4h18zm8.982-6.649-6.982 1.269v-46.62c0-1.103-.897-2-2-2h-18v-1.127l20.996-2.863c.604-.074 1.152.354 1.22.953l5.776 49.029c.006.047.008.093.008.139 0 .599-.428 1.112-1.018 1.22zm-26.982-3.351h16v-16h-16zm2-14h12v12h-12zm4 16h10v2h-10zm-2 0v2h-4v-2zm-4 4h16v2h-16zm-12-4h10v2h-10zm0 4h10v2h-10zm6-8h4v2h-4zm-2 2h-4v-2h4zm8-20h16v2h-16zm-10-4h8v2h-8zm0-4h8v2h-8zm10 0h16v2h-16zm-10-4h26v2h-26zm14 8v2h-4v-2zm2 0h10v2h-10zm10-10h-10v-2h10zm-12 0h-4v-2h4z" fill="url(#SVGID_1_)"/></svg>